<svg width="45" height="45" viewBox="0 0 45 45" fill="none" xmlns="http://www.w3.org/2000/svg">
<path fill-rule="evenodd" clip-rule="evenodd" d="M22.5254 0.557129C10.3751 0.557129 0.525391 10.4069 0.525391 22.5571C0.525391 34.7074 10.3751 44.5571 22.5254 44.5571C34.6757 44.5571 44.5254 34.7074 44.5254 22.5571C44.5254 10.4069 34.6757 0.557129 22.5254 0.557129ZM29.206 7.49653C29.6093 9.65756 30.9017 11.5125 32.6928 12.6715C33.9407 13.4789 35.428 13.9495 37.0249 13.9495V19.6233C34.0601 19.6233 31.3127 18.682 29.0705 17.0851V28.615C29.0705 34.3727 24.3506 39.0571 18.548 39.0571C16.3059 39.0571 14.2263 38.356 12.5177 37.1644C9.8032 35.2742 8.02494 32.1476 8.02494 28.615C8.02494 22.8561 12.7455 18.1723 18.5474 18.1723C19.0287 18.1723 19.5004 18.2107 19.965 18.2741V24.0657C19.5165 23.9267 19.0423 23.8454 18.5474 23.8454C15.8981 23.8454 13.7417 25.9853 13.7417 28.615C13.7417 30.4457 14.7889 32.0368 16.3188 32.8353C16.9859 33.1843 17.7434 33.3834 18.548 33.3834C21.1367 33.3834 23.2486 31.3402 23.3441 28.7937L23.3537 6.05713H29.0705C29.0705 6.54888 29.1189 7.02975 29.206 7.49653Z" fill="white"/>
</svg>
